{
	"asset":{
		"generator":"Khronos glTF Blender I/O v4.0.44",
		"version":"2.0"
	},
	"scene":0,
	"scenes":[
		{
			"name":"Scene",
			"nodes":[
				31
			]
		}
	],
	"nodes":[
		{
			"mesh":0,
			"name":"Middle Railings_Baked_Middle Railings_Baked_0.001",
			"translation":[
				0,
				-0.024049920961260796,
				-397.5406494140625
			]
		},
		{
			"children":[
				0
			],
			"name":"Middle Railings_Baked",
			"rotation":[
				-0.70710688829422,
				0,
				0,
				0.7071066498756409
			],
			"scale":[
				421.5356750488281,
				150.6913299560547,
				7.887321472167969
			],
			"translation":[
				-837.8448486328125,
				3097.87548828125,
				-214.09788513183594
			]
		},
		{
			"name":"Middle.001_Baked",
			"rotation":[
				-0.70710688829422,
				0,
				0,
				0.7071066498756409
			],
			"scale":[
				421.5356750488281,
				150.6913299560547,
				7.887321472167969
			],
			"translation":[
				-837.8448486328125,
				3097.87548828125,
				-214.09788513183594
			]
		},
		{
			"name":"Middle.002_Baked",
			"rotation":[
				-0.70710688829422,
				0,
				0,
				0.7071066498756409
			],
			"scale":[
				421.5356750488281,
				150.6913299560547,
				7.887321472167969
			],
			"translation":[
				-837.8448486328125,
				3097.87548828125,
				-214.09788513183594
			]
		},
		{
			"name":"Middle.003_Baked",
			"rotation":[
				-0.70710688829422,
				0,
				0,
				0.7071066498756409
			],
			"scale":[
				421.5356750488281,
				150.6913299560547,
				7.887321472167969
			],
			"translation":[
				-837.8448486328125,
				3097.87548828125,
				-214.09788513183594
			]
		},
		{
			"name":"Middle.004_Baked",
			"rotation":[
				-0.70710688829422,
				0,
				0,
				0.7071066498756409
			],
			"scale":[
				421.5356750488281,
				150.6913299560547,
				7.887321472167969
			],
			"translation":[
				-837.8448486328125,
				3097.87548828125,
				-214.09788513183594
			]
		},
		{
			"name":"Middle.005_Baked",
			"rotation":[
				-0.70710688829422,
				0,
				0,
				0.7071066498756409
			],
			"scale":[
				421.5356750488281,
				150.6913299560547,
				7.887321472167969
			],
			"translation":[
				-837.8448486328125,
				3097.87548828125,
				-214.09788513183594
			]
		},
		{
			"name":"Middle.006_Baked",
			"rotation":[
				-0.70710688829422,
				0,
				0,
				0.7071066498756409
			],
			"scale":[
				421.5356750488281,
				150.6913299560547,
				7.887321472167969
			],
			"translation":[
				-837.8448486328125,
				3097.87548828125,
				-214.09788513183594
			]
		},
		{
			"name":"Middle.007_Baked",
			"rotation":[
				-0.70710688829422,
				0,
				0,
				0.7071066498756409
			],
			"scale":[
				421.5356750488281,
				150.6913299560547,
				7.887321472167969
			],
			"translation":[
				-837.8448486328125,
				3097.87548828125,
				-214.09788513183594
			]
		},
		{
			"name":"Middle.008_Baked",
			"rotation":[
				-0.70710688829422,
				0,
				0,
				0.7071066498756409
			],
			"scale":[
				421.5356750488281,
				150.6913299560547,
				7.887321472167969
			],
			"translation":[
				-837.8448486328125,
				3097.87548828125,
				-214.09788513183594
			]
		},
		{
			"name":"Middle.009_Baked",
			"rotation":[
				-0.70710688829422,
				0,
				0,
				0.7071066498756409
			],
			"scale":[
				421.5356750488281,
				150.6913299560547,
				7.887321472167969
			],
			"translation":[
				-837.8448486328125,
				3097.87548828125,
				-214.09788513183594
			]
		},
		{
			"name":"Middle.010_Baked",
			"rotation":[
				-0.70710688829422,
				0,
				0,
				0.7071066498756409
			],
			"scale":[
				421.5356750488281,
				150.6913299560547,
				7.887321472167969
			],
			"translation":[
				-837.8448486328125,
				3097.87548828125,
				-214.09788513183594
			]
		},
		{
			"name":"Middle.011_Baked",
			"rotation":[
				-0.70710688829422,
				0,
				0,
				0.7071066498756409
			],
			"scale":[
				421.5356750488281,
				150.6913299560547,
				7.887321472167969
			],
			"translation":[
				-837.8448486328125,
				3097.87548828125,
				-214.09788513183594
			]
		},
		{
			"name":"Middle.012_Baked",
			"rotation":[
				-0.70710688829422,
				0,
				0,
				0.7071066498756409
			],
			"scale":[
				421.5356750488281,
				150.6913299560547,
				7.887321472167969
			],
			"translation":[
				-837.8448486328125,
				3097.87548828125,
				-214.09788513183594
			]
		},
		{
			"name":"Middle.013_Baked",
			"rotation":[
				-0.70710688829422,
				0,
				0,
				0.7071066498756409
			],
			"scale":[
				421.5356750488281,
				150.6913299560547,
				7.887321472167969
			],
			"translation":[
				-837.8448486328125,
				3097.87548828125,
				-214.09788513183594
			]
		},
		{
			"name":"Middle.014_Baked",
			"rotation":[
				-0.70710688829422,
				0,
				0,
				0.7071066498756409
			],
			"scale":[
				421.5356750488281,
				150.6913299560547,
				7.887321472167969
			],
			"translation":[
				-837.8448486328125,
				3097.87548828125,
				-214.09788513183594
			]
		},
		{
			"name":"Middle.015_Baked",
			"rotation":[
				-0.70710688829422,
				0,
				0,
				0.7071066498756409
			],
			"scale":[
				421.5356750488281,
				150.6913299560547,
				7.887321472167969
			],
			"translation":[
				-837.8448486328125,
				3097.87548828125,
				-214.09788513183594
			]
		},
		{
			"name":"Middle.016_Baked",
			"rotation":[
				-0.70710688829422,
				0,
				0,
				0.7071066498756409
			],
			"scale":[
				421.5356750488281,
				150.6913299560547,
				7.887321472167969
			],
			"translation":[
				-837.8448486328125,
				3097.87548828125,
				-214.09788513183594
			]
		},
		{
			"name":"Middle.017_Baked",
			"rotation":[
				-0.70710688829422,
				0,
				0,
				0.7071066498756409
			],
			"scale":[
				421.5356750488281,
				150.6913299560547,
				7.887321472167969
			],
			"translation":[
				-837.8448486328125,
				3097.87548828125,
				-214.09788513183594
			]
		},
		{
			"name":"Middle.018_Baked",
			"rotation":[
				-0.70710688829422,
				0,
				0,
				0.7071066498756409
			],
			"scale":[
				421.5356750488281,
				150.6913299560547,
				7.887321472167969
			],
			"translation":[
				-837.8448486328125,
				3097.87548828125,
				-214.09788513183594
			]
		},
		{
			"name":"Middle.019_Baked",
			"rotation":[
				-0.70710688829422,
				0,
				0,
				0.7071066498756409
			],
			"scale":[
				421.5356750488281,
				150.6913299560547,
				7.887321472167969
			],
			"translation":[
				-837.8448486328125,
				3097.87548828125,
				-214.09788513183594
			]
		},
		{
			"name":"Middle.020_Baked",
			"rotation":[
				-0.70710688829422,
				0,
				0,
				0.7071066498756409
			],
			"scale":[
				421.5356750488281,
				150.6913299560547,
				7.887321472167969
			],
			"translation":[
				-837.8448486328125,
				3097.87548828125,
				-214.09788513183594
			]
		},
		{
			"name":"Middle.021_Baked",
			"rotation":[
				-0.70710688829422,
				0,
				0,
				0.7071066498756409
			],
			"scale":[
				421.5356750488281,
				150.6913299560547,
				7.887321472167969
			],
			"translation":[
				-837.8448486328125,
				3097.87548828125,
				-214.09788513183594
			]
		},
		{
			"name":"Middle.022_Baked",
			"rotation":[
				-0.70710688829422,
				0,
				0,
				0.7071066498756409
			],
			"scale":[
				421.5356750488281,
				150.6913299560547,
				7.887321472167969
			],
			"translation":[
				-837.8448486328125,
				3097.87548828125,
				-214.09788513183594
			]
		},
		{
			"name":"Middle.023_Baked",
			"rotation":[
				-0.70710688829422,
				0,
				0,
				0.7071066498756409
			],
			"scale":[
				421.5356750488281,
				150.6913299560547,
				7.887321472167969
			],
			"translation":[
				-837.8448486328125,
				3097.87548828125,
				-214.09788513183594
			]
		},
		{
			"name":"Middle.024_Baked",
			"rotation":[
				-0.70710688829422,
				0,
				0,
				0.7071066498756409
			],
			"scale":[
				421.5356750488281,
				150.6913299560547,
				7.887321472167969
			],
			"translation":[
				-837.8448486328125,
				3097.87548828125,
				-214.09788513183594
			]
		},
		{
			"name":"Middle.025_Baked",
			"rotation":[
				-0.70710688829422,
				0,
				0,
				0.7071066498756409
			],
			"scale":[
				421.5356750488281,
				150.6913299560547,
				7.887321472167969
			],
			"translation":[
				-837.8448486328125,
				3097.87548828125,
				-214.09788513183594
			]
		},
		{
			"name":"Middle.026_Baked",
			"rotation":[
				-0.70710688829422,
				0,
				0,
				0.7071066498756409
			],
			"scale":[
				421.5356750488281,
				150.6913299560547,
				7.887321472167969
			],
			"translation":[
				-837.8448486328125,
				3097.87548828125,
				-214.09788513183594
			]
		},
		{
			"name":"Middle_Baked",
			"rotation":[
				-0.70710688829422,
				0,
				0,
				0.7071066498756409
			],
			"scale":[
				421.5356750488281,
				150.6913299560547,
				7.887321472167969
			],
			"translation":[
				-837.8448486328125,
				3097.87548828125,
				-214.09788513183594
			]
		},
		{
			"children":[
				1,
				2,
				3,
				4,
				5,
				6,
				7,
				8,
				9,
				10,
				11,
				12,
				13,
				14,
				15,
				16,
				17,
				18,
				19,
				20,
				21,
				22,
				23,
				24,
				25,
				26,
				27,
				28
			],
			"name":"RootNode"
		},
		{
			"children":[
				29
			],
			"name":"PreviewCompanyexport.fbx",
			"rotation":[
				0.70710688829422,
				0,
				0,
				0.7071066498756409
			],
			"scale":[
				0.009999999776482582,
				0.010000000707805157,
				0.010000000707805157
			]
		},
		{
			"children":[
				30
			],
			"name":"Sketchfab_model",
			"rotation":[
				-0.70710688829422,
				0,
				0,
				0.7071066498756409
			]
		}
	],
	"materials":[
		{
			"doubleSided":true,
			"name":"Middle.020_Baked_12",
			"pbrMetallicRoughness":{
				"baseColorTexture":{
					"index":0
				},
				"metallicFactor":0,
				"roughnessFactor":0.8211145401000977
			}
		}
	],
	"meshes":[
		{
			"name":"Middle Railings_Baked_Middle Railings_Baked_0.001",
			"primitives":[
				{
					"attributes":{
						"POSITION":0,
						"NORMAL":1,
						"TEXCOORD_0":2,
						"TEXCOORD_1":3
					},
					"indices":4,
					"material":0
				}
			]
		}
	],
	"textures":[
		{
			"sampler":0,
			"source":0
		}
	],
	"images":[
		{
			"mimeType":"image/jpeg",
			"name":"Middle.020_Baked_12_baseColor",
			"uri":"Middle_020_Baked_12_baseColor.jpg"
		}
	],
	"accessors":[
		{
			"bufferView":0,
			"componentType":5126,
			"count":15795,
			"max":[
				5.029507637023926,
				-9.971851348876953,
				24.39774513244629
			],
			"min":[
				-2.5721511840820312,
				-10.056680679321289,
				8.784022331237793
			],
			"type":"VEC3"
		},
		{
			"bufferView":1,
			"componentType":5126,
			"count":15795,
			"type":"VEC3"
		},
		{
			"bufferView":2,
			"componentType":5126,
			"count":15795,
			"type":"VEC2"
		},
		{
			"bufferView":3,
			"componentType":5126,
			"count":15795,
			"type":"VEC2"
		},
		{
			"bufferView":4,
			"componentType":5123,
			"count":56607,
			"type":"SCALAR"
		}
	],
	"bufferViews":[
		{
			"buffer":0,
			"byteLength":189540,
			"byteOffset":0,
			"target":34962
		},
		{
			"buffer":0,
			"byteLength":189540,
			"byteOffset":189540,
			"target":34962
		},
		{
			"buffer":0,
			"byteLength":126360,
			"byteOffset":379080,
			"target":34962
		},
		{
			"buffer":0,
			"byteLength":126360,
			"byteOffset":505440,
			"target":34962
		},
		{
			"buffer":0,
			"byteLength":113214,
			"byteOffset":631800,
			"target":34963
		}
	],
	"samplers":[
		{
			"magFilter":9729,
			"minFilter":9987
		}
	],
	"buffers":[
		{
			"byteLength":745016,
			"uri":"scene.bin"
		}
	]
}
