{
	"asset":{
		"generator":"Khronos glTF Blender I/O v4.0.44",
		"version":"2.0"
	},
	"scene":0,
	"scenes":[
		{
			"name":"Scene",
			"nodes":[
				8,
				9
			]
		}
	],
	"nodes":[
		{
			"mesh":0,
			"name":"Lamps.003_Baked_Lamps.003_Baked_0",
			"translation":[
				-7.526822628278751e-06,
				5.5730342864990234e-06,
				0.0004410743713378906
			]
		},
		{
			"children":[
				0
			],
			"name":"Lamps.003_Baked",
			"rotation":[
				-0.2507839500904083,
				-0.0012836272362619638,
				-0.0003325708967167884,
				0.9680421948432922
			],
			"scale":[
				17.01506996154785,
				6.225101947784424,
				0.639879047870636
			],
			"translation":[
				1341.2337646484375,
				236.53700256347656,
				-1606.36669921875
			]
		},
		{
			"mesh":1,
			"name":"Lamps.004_Baked_Lamps.004_Baked_0",
			"translation":[
				0,
				7.331371307373047e-06,
				-0.0001926422119140625
			]
		},
		{
			"children":[
				2
			],
			"name":"Lamps.004_Baked",
			"rotation":[
				-0.2507839500904083,
				-0.0012836272362619638,
				-0.0003325708967167884,
				0.9680421948432922
			],
			"scale":[
				17.01506996154785,
				6.225101947784424,
				0.639879047870636
			],
			"translation":[
				-2188.560546875,
				236.53700256347656,
				-1615.728759765625
			]
		},
		{
			"mesh":2,
			"name":"Lamps_Baked_Lamps_Baked_0",
			"translation":[
				4.8113388402271084e-06,
				0,
				0.0002721548080444336
			]
		},
		{
			"children":[
				4
			],
			"name":"Lamps_Baked",
			"rotation":[
				-0.2507839500904083,
				-0.0012836272362619638,
				-0.0003325708967167884,
				0.9680421948432922
			],
			"scale":[
				17.01506996154785,
				6.225101947784424,
				0.639879047870636
			],
			"translation":[
				-506.8189392089844,
				236.53700256347656,
				-1611.2681884765625
			]
		},
		{
			"children":[
				1,
				3,
				5
			],
			"name":"RootNode"
		},
		{
			"children":[
				6
			],
			"name":"PreviewCompanyexport.fbx",
			"rotation":[
				0.70710688829422,
				0,
				0,
				0.7071066498756409
			],
			"scale":[
				0.009999999776482582,
				0.009999998845160007,
				0.009999998845160007
			]
		},
		{
			"children":[
				7
			],
			"name":"Sketchfab_model",
			"rotation":[
				-0.70710688829422,
				0,
				0,
				0.7071066498756409
			]
		},
		{
			"mesh":3,
			"name":"SmallReinforcement_Baked_SmallReinforcement_Baked_0"
		}
	],
	"materials":[
		{
			"doubleSided":true,
			"name":"Middle.020_Baked_39",
			"pbrMetallicRoughness":{
				"baseColorTexture":{
					"index":0
				},
				"metallicFactor":0,
				"roughnessFactor":0.8211145401000977
			}
		},
		{
			"doubleSided":true,
			"name":"Middle.020_Baked_40",
			"pbrMetallicRoughness":{
				"baseColorTexture":{
					"index":1
				},
				"metallicFactor":0,
				"roughnessFactor":0.8211145401000977
			}
		},
		{
			"doubleSided":true,
			"name":"Middle.020_Baked_11",
			"pbrMetallicRoughness":{
				"baseColorTexture":{
					"index":2
				},
				"metallicFactor":0,
				"roughnessFactor":0.8211145401000977
			}
		},
		{
			"doubleSided":true,
			"name":"Middle.020_Baked_62",
			"pbrMetallicRoughness":{
				"baseColorTexture":{
					"index":3
				},
				"metallicFactor":0,
				"roughnessFactor":0.8211145401000977
			}
		}
	],
	"meshes":[
		{
			"name":"Lamps.003_Baked_Lamps.003_Baked_0",
			"primitives":[
				{
					"attributes":{
						"POSITION":0,
						"NORMAL":1,
						"TEXCOORD_0":2,
						"TEXCOORD_1":3
					},
					"indices":4,
					"material":0
				}
			]
		},
		{
			"name":"Lamps.004_Baked_Lamps.004_Baked_0",
			"primitives":[
				{
					"attributes":{
						"POSITION":5,
						"NORMAL":6,
						"TEXCOORD_0":7,
						"TEXCOORD_1":8
					},
					"indices":4,
					"material":1
				}
			]
		},
		{
			"name":"Lamps_Baked_Lamps_Baked_0",
			"primitives":[
				{
					"attributes":{
						"POSITION":9,
						"NORMAL":10,
						"TEXCOORD_0":11,
						"TEXCOORD_1":12
					},
					"indices":4,
					"material":2
				}
			]
		},
		{
			"name":"SmallReinforcement_Baked_SmallReinforcement_Baked_0",
			"primitives":[
				{
					"attributes":{
						"POSITION":13,
						"NORMAL":14,
						"TEXCOORD_0":15,
						"TEXCOORD_1":16
					},
					"indices":17,
					"material":3
				}
			]
		}
	],
	"textures":[
		{
			"sampler":0,
			"source":0
		},
		{
			"sampler":0,
			"source":1
		},
		{
			"sampler":0,
			"source":2
		},
		{
			"sampler":0,
			"source":3
		}
	],
	"images":[
		{
			"mimeType":"image/jpeg",
			"name":"Middle_020_Baked_39_baseColor",
			"uri":"Middle_020_Baked_39_baseColor.jpg"
		},
		{
			"mimeType":"image/jpeg",
			"name":"Middle_020_Baked_40_baseColor",
			"uri":"Middle_020_Baked_40_baseColor.jpg"
		},
		{
			"mimeType":"image/jpeg",
			"name":"Middle_020_Baked_11_baseColor",
			"uri":"Middle_020_Baked_11_baseColor.jpg"
		},
		{
			"mimeType":"image/jpeg",
			"name":"Middle_020_Baked_62_baseColor",
			"uri":"Middle_020_Baked_62_baseColor.jpg"
		}
	],
	"accessors":[
		{
			"bufferView":0,
			"componentType":5126,
			"count":476,
			"max":[
				10,
				10,
				78.30378723144531
			],
			"min":[
				-10,
				-10,
				-78.30378723144531
			],
			"type":"VEC3"
		},
		{
			"bufferView":1,
			"componentType":5126,
			"count":476,
			"type":"VEC3"
		},
		{
			"bufferView":2,
			"componentType":5126,
			"count":476,
			"type":"VEC2"
		},
		{
			"bufferView":3,
			"componentType":5126,
			"count":476,
			"type":"VEC2"
		},
		{
			"bufferView":4,
			"componentType":5123,
			"count":1044,
			"type":"SCALAR"
		},
		{
			"bufferView":5,
			"componentType":5126,
			"count":476,
			"max":[
				10,
				10,
				78.30378723144531
			],
			"min":[
				-10,
				-10,
				-78.30378723144531
			],
			"type":"VEC3"
		},
		{
			"bufferView":6,
			"componentType":5126,
			"count":476,
			"type":"VEC3"
		},
		{
			"bufferView":7,
			"componentType":5126,
			"count":476,
			"type":"VEC2"
		},
		{
			"bufferView":8,
			"componentType":5126,
			"count":476,
			"type":"VEC2"
		},
		{
			"bufferView":9,
			"componentType":5126,
			"count":476,
			"max":[
				10,
				10,
				78.30378723144531
			],
			"min":[
				-10,
				-10,
				-78.30378723144531
			],
			"type":"VEC3"
		},
		{
			"bufferView":10,
			"componentType":5126,
			"count":476,
			"type":"VEC3"
		},
		{
			"bufferView":11,
			"componentType":5126,
			"count":476,
			"type":"VEC2"
		},
		{
			"bufferView":12,
			"componentType":5126,
			"count":476,
			"type":"VEC2"
		},
		{
			"bufferView":13,
			"componentType":5126,
			"count":3501,
			"max":[
				7.730898857116699,
				10.48504638671875,
				-963.795166015625
			],
			"min":[
				-7.730898857116699,
				-10.48504638671875,
				-1504.1904296875
			],
			"type":"VEC3"
		},
		{
			"bufferView":14,
			"componentType":5126,
			"count":3501,
			"type":"VEC3"
		},
		{
			"bufferView":15,
			"componentType":5126,
			"count":3501,
			"type":"VEC2"
		},
		{
			"bufferView":16,
			"componentType":5126,
			"count":3501,
			"type":"VEC2"
		},
		{
			"bufferView":17,
			"componentType":5123,
			"count":5256,
			"type":"SCALAR"
		}
	],
	"bufferViews":[
		{
			"buffer":0,
			"byteLength":5712,
			"byteOffset":0,
			"target":34962
		},
		{
			"buffer":0,
			"byteLength":5712,
			"byteOffset":5712,
			"target":34962
		},
		{
			"buffer":0,
			"byteLength":3808,
			"byteOffset":11424,
			"target":34962
		},
		{
			"buffer":0,
			"byteLength":3808,
			"byteOffset":15232,
			"target":34962
		},
		{
			"buffer":0,
			"byteLength":2088,
			"byteOffset":19040,
			"target":34963
		},
		{
			"buffer":0,
			"byteLength":5712,
			"byteOffset":21128,
			"target":34962
		},
		{
			"buffer":0,
			"byteLength":5712,
			"byteOffset":26840,
			"target":34962
		},
		{
			"buffer":0,
			"byteLength":3808,
			"byteOffset":32552,
			"target":34962
		},
		{
			"buffer":0,
			"byteLength":3808,
			"byteOffset":36360,
			"target":34962
		},
		{
			"buffer":0,
			"byteLength":5712,
			"byteOffset":40168,
			"target":34962
		},
		{
			"buffer":0,
			"byteLength":5712,
			"byteOffset":45880,
			"target":34962
		},
		{
			"buffer":0,
			"byteLength":3808,
			"byteOffset":51592,
			"target":34962
		},
		{
			"buffer":0,
			"byteLength":3808,
			"byteOffset":55400,
			"target":34962
		},
		{
			"buffer":0,
			"byteLength":42012,
			"byteOffset":59208,
			"target":34962
		},
		{
			"buffer":0,
			"byteLength":42012,
			"byteOffset":101220,
			"target":34962
		},
		{
			"buffer":0,
			"byteLength":28008,
			"byteOffset":143232,
			"target":34962
		},
		{
			"buffer":0,
			"byteLength":28008,
			"byteOffset":171240,
			"target":34962
		},
		{
			"buffer":0,
			"byteLength":10512,
			"byteOffset":199248,
			"target":34963
		}
	],
	"samplers":[
		{
			"magFilter":9729,
			"minFilter":9987
		}
	],
	"buffers":[
		{
			"byteLength":209760,
			"uri":"scene.bin"
		}
	]
}
