{
	"asset":{
		"generator":"Khronos glTF Blender I/O v4.0.44",
		"version":"2.0"
	},
	"scene":0,
	"scenes":[
		{
			"name":"Scene",
			"nodes":[
				4
			]
		}
	],
	"nodes":[
		{
			"mesh":0,
			"name":"ShipLanding_Baked_ShipLanding_Baked_0",
			"rotation":[
				0,
				-2.0661107100750087e-06,
				0.9999970197677612,
				0.0024476919788867235
			],
			"translation":[
				0,
				1.3936169125372544e-05,
				-601.513427734375
			]
		},
		{
			"children":[
				0
			],
			"name":"ShipLanding_Baked",
			"rotation":[
				-0.70710688829422,
				0,
				0,
				0.7071066498756409
			],
			"scale":[
				63.08195114135742,
				68.50528717041016,
				5.152320384979248
			],
			"translation":[
				-412.0205078125,
				3214.697509765625,
				498.3847961425781
			]
		},
		{
			"children":[
				1
			],
			"name":"RootNode",
			"translation":[
				0,
				-3.814697265625e-06,
				0
			]
		},
		{
			"children":[
				2
			],
			"name":"PreviewCompanyexport.fbx",
			"rotation":[
				0.70710688829422,
				0,
				0,
				0.7071066498756409
			],
			"scale":[
				0.009999999776482582,
				0.010000000707805157,
				0.010000000707805157
			],
			"translation":[
				0,
				0,
				-0.32077711820602417
			]
		},
		{
			"children":[
				3
			],
			"name":"Sketchfab_model",
			"rotation":[
				-0.70710688829422,
				0,
				0,
				0.7071066498756409
			]
		}
	],
	"materials":[
		{
			"doubleSided":true,
			"name":"Middle.020_Baked_41",
			"pbrMetallicRoughness":{
				"baseColorTexture":{
					"index":0
				},
				"metallicFactor":0,
				"roughnessFactor":0.8211145401000977
			}
		}
	],
	"meshes":[
		{
			"name":"ShipLanding_Baked_ShipLanding_Baked_0",
			"primitives":[
				{
					"attributes":{
						"POSITION":0,
						"NORMAL":1,
						"TEXCOORD_0":2,
						"TEXCOORD_1":3
					},
					"indices":4,
					"material":0
				}
			]
		}
	],
	"textures":[
		{
			"sampler":0,
			"source":0
		}
	],
	"images":[
		{
			"mimeType":"image/jpeg",
			"name":"Middle.020_Baked_41_baseColor",
			"uri":"Middle_020_Baked_41_baseColor.jpg"
		}
	],
	"accessors":[
		{
			"bufferView":0,
			"componentType":5126,
			"count":145,
			"max":[
				17.933067321777344,
				10.729595184326172,
				12.634581565856934
			],
			"min":[
				-4.237979888916016,
				-9.705020904541016,
				-7.365418434143066
			],
			"type":"VEC3"
		},
		{
			"bufferView":1,
			"componentType":5126,
			"count":145,
			"type":"VEC3"
		},
		{
			"bufferView":2,
			"componentType":5126,
			"count":145,
			"type":"VEC2"
		},
		{
			"bufferView":3,
			"componentType":5126,
			"count":145,
			"type":"VEC2"
		},
		{
			"bufferView":4,
			"componentType":5123,
			"count":285,
			"type":"SCALAR"
		}
	],
	"bufferViews":[
		{
			"buffer":0,
			"byteLength":1740,
			"byteOffset":0,
			"target":34962
		},
		{
			"buffer":0,
			"byteLength":1740,
			"byteOffset":1740,
			"target":34962
		},
		{
			"buffer":0,
			"byteLength":1160,
			"byteOffset":3480,
			"target":34962
		},
		{
			"buffer":0,
			"byteLength":1160,
			"byteOffset":4640,
			"target":34962
		},
		{
			"buffer":0,
			"byteLength":570,
			"byteOffset":5800,
			"target":34963
		}
	],
	"samplers":[
		{
			"magFilter":9729,
			"minFilter":9987
		}
	],
	"buffers":[
		{
			"byteLength":6372,
			"uri":"scene.bin"
		}
	]
}
